/* XPM */
static char * CabinetDesignIcon_xpm[] = {
"64 64 3 1",
" 	c None",
".	c #000000",
"+	c #985740",
"                                                                ",
"                                                                ",
"                                                                ",
"           ..........................................           ",
"           ..........................................           ",
"           ..........................................           ",
"           ...++++++++++++++++++++++++++++++++++++...           ",
"           ...++++++++++++++++++++++++++++++++++++...           ",
"           ...++++++++++++++++++++++++++++++++++++...           ",
"           ...++++++++++++++++++++++++++++++++++++...           ",
"           ...++++++++++++++++++++++++++++++++++++...           ",
"           ...++++++++++++++++++++++++++++++++++++...           ",
"           ...++++++++++++++++++++++++++++++++++++...           ",
"           ...++++++++++++++++++++++++++++++++++++...           ",
"           ...++++++++++++++++++++++++++++++++++++...           ",
"           ...++++++++++++++++++++++++++++++++++++...           ",
"           ...++++++++++++++++++++++++++++++++++++...           ",
"           ...++++++++++++++++++++++++++++++++++++...           ",
"           ...+++...++++++++++++++++++++++++++++++...           ",
"           ...+++...++++++++++++++++++++++++++++++...           ",
"           ...+++...++++++++++++++++++++++++++++++...           ",
"           ...++++++++++++++++++++++++++++++++++++...           ",
"           ...++++++++++++++++++++++++++++++++++++...           ",
"           ...++++++++++++++++++++++++++++++++++++...           ",
"           ...++++++++++++++++++++++++++++++++++++...           ",
"           ...++++++++++++++++++++++++++++++++++++...           ",
"           ...++++++++++++++++++++++++++++++++++++...           ",
"           ...++++++++++++++++++++++++++++++++++++...           ",
"           ...++++++++++++++++++++++++++++++++++++...           ",
"           ...++++++++++++++++++++++++++++++++++++...           ",
"           ...++++++++++++++++++++++++++++++++++++...           ",
"           ..........................................           ",
"           ..........................................           ",
"           ..........................................           ",
"           ...++++++++++++++++++++++++++++++++++++...           ",
"           ...++++++++++++++++++++++++++++++++++++...           ",
"           ...++++++++++++++++++++++++++++++++++++...           ",
"           ...++++++++++++++++...+++++++++++++++++...           ",
"           ...++++++++++++++++...+++++++++++++++++...           ",
"           ...++++++++++++++++...+++++++++++++++++...           ",
"           ...++++++++++++++++++++++++++++++++++++...           ",
"           ...++++++++++++++++++++++++++++++++++++...           ",
"           ...++++++++++++++++++++++++++++++++++++...           ",
"           ..........................................           ",
"           ..........................................           ",
"           ..........................................           ",
"           ...++++++++++++++++++++++++++++++++++++...           ",
"           ...++++++++++++++++++++++++++++++++++++...           ",
"           ...++++++++++++++++++++++++++++++++++++...           ",
"           ...++++++++++++++++...+++++++++++++++++...           ",
"           ...++++++++++++++++...+++++++++++++++++...           ",
"           ...++++++++++++++++...+++++++++++++++++...           ",
"           ...++++++++++++++++++++++++++++++++++++...           ",
"           ...++++++++++++++++++++++++++++++++++++...           ",
"           ...++++++++++++++++++++++++++++++++++++...           ",
"           ...++++++++++++++++++++++++++++++++++++...           ",
"           ..........................................           ",
"           ..........................................           ",
"           ..........................................           ",
"                                                                ",
"                                                                ",
"                                                                ",
"                                                                ",
"                                                                "};
