/* XPM */
static char * EditSpaceBoxTableIcon_xpm[] = {
"64 64 4 1",
" 	c None",
".	c #FF8000",
"+	c #000000",
"@	c #1200FF",
"                                                                ",
"                                                                ",
"                                                                ",
"                                                                ",
"                           .......                              ",
"                        .............                           ",
"                     ...................                        ",
"                  .........................                     ",
"              ................................                  ",
"           ......................................               ",
"        ............................................            ",
"     ....................           ...................         ",
"   ...................                 ...................      ",
"   ...............                        ..................    ",
"   ............                              ...............    ",
"   ..............                               ............    ",
"   ................                             ............    ",
"   ...................                        ..............    ",
"   ......................                  .................    ",
"   .....  .................             ....................    ",
"   .....     .................        ......................    ",
"   .....       .................   .................   .....    ",
"   .....          ................................     .....    ",
"   .....             ..........................        .....    ",
"   .....               .....................           .....    ",
"   .....                  ................             .....    ",
"   .....                    ...........                .....    ",
"   .....                      .......             ++++ .....    ",
"   .....                       .....             ++@@+ .....    ",
"   .....                       .....            ++@@@+ .....    ",
"   .....                       .....           ++@@@@+ .....    ",
"   .....                       .....          ++@@@@@+ .....    ",
"   .....                       .....         ++@@@@@@++++++++++ ",
"   .....                       .....        ++@@@@@@@@@@@@@@@@+ ",
"   .....                       .....       ++@@@@@@@@@@@@@@@@@+ ",
"   .....                       .....      ++@@@@@@@@@@@@@@@@@@+ ",
"   .....                       .....       ++@@@@@@@@@@@@@@@@@+ ",
"   .....                       .....        ++@@@@@@@@@@@@@@@@+ ",
"   .....                       .....         ++@@@@@@++++++++++ ",
"   .....                       .....          ++@@@@@+ .....    ",
"   .....                       .....           ++@@@@+ .....    ",
"   .....                       .....            ++@@@+ .....    ",
"   .....                       .....             ++@@+ .....    ",
"   .....                       .....              ++++ .....    ",
"   .....                       .....                 .......    ",
"   ......                      .....               .........    ",
"   ........                    .....             ...........    ",
"   ...........                 .....           .............    ",
"   .............               .....         ..............     ",
"   ................            .....        .............       ",
"     ................          .....      .............         ",
"       .................       .....    .............           ",
"          .................    .....  .............             ",
"            .................  ..................               ",
"               .................................                ",
"                 .............................                  ",
"                    ........................                    ",
"                       ...................                      ",
"                         ...............                        ",
"                            ..........                          ",
"                              ......                            ",
"                                                                ",
"                                                                ",
"                                                                "};
