/* XPM */
static char * LibaryIcon_xpm[] = {
"64 64 8 1",
" 	c None",
".	c #000000",
"+	c #114605",
"@	c #F61010",
"#	c #1403BF",
"$	c #0DC3DB",
"%	c #6427F3",
"&	c #B605E4",
"                                                                ",
"                                                                ",
"                                                                ",
"                                                                ",
"                                                                ",
"                                                                ",
"                                                                ",
"                                                                ",
"                                                                ",
"                                                                ",
"                                                                ",
"                                                                ",
"                                                                ",
"                                                                ",
"                                                                ",
"                    .......                                     ",
"                   .........                                    ",
"                   .........                                    ",
"                   ...+++...                                    ",
"                   ...+++...                                    ",
"  ..........       ...+++...                                    ",
" ............      ...+++............                           ",
" ............      ...+++.............                          ",
" ...@@@@@@...      ...+++.............                          ",
" ...@@@@@@...      ...+++...#######...             ..           ",
" ...@@@@@@...      ...+++...#######...          ......          ",
" ...@@@@@@...      ...+++...#######...        ........          ",
" ...@@@@@@............+++...#######...       ......$..          ",
" ...@@@@@@............+++...#######...       ...$$$$..          ",
" ...@@@@@@............+++...#######...        ...$$$...         ",
" ...@@@@@@...%%%%%%...+++...#######...        ...$$$...         ",
" ...@@@@@@...%%%%%%...+++...#######...        ...$$$$...        ",
" ...@@@@@@...%%%%%%...+++...#######..............$$$$...        ",
" ...@@@@@@...%%%%%%...+++...#######...............$$$...        ",
" ...@@@@@@...%%%%%%...+++...#######...............$$$$...       ",
" ...@@@@@@...%%%%%%...+++...#######...&&&&&&&.....$$$$...       ",
" ...@@@@@@...%%%%%%...+++...#######...&&&&&&&.....$$$$...       ",
" ...@@@@@@...%%%%%%...+++...#######...&&&&&&&......$$$...       ",
" ...@@@@@@...%%%%%%...+++...#######...&&&&&&&......$$$$...      ",
" ...@@@@@@...%%%%%%...+++...#######...&&&&&&&......$$$$...      ",
" ...@@@@@@...%%%%%%...+++...#######...&&&&&&&......$$$$...      ",
" ...@@@@@@...%%%%%%...+++...#######...&&&&&&&... ...$$$$...     ",
" ...@@@@@@...%%%%%%...+++...#######...&&&&&&&... ...$$$$...     ",
" ...@@@@@@...%%%%%%...+++...#######...&&&&&&&... ...$$$$...     ",
" ...@@@@@@...%%%%%%...+++...#######...&&&&&&&...  ...$$$...     ",
" ...@@@@@@...%%%%%%...+++...#######...&&&&&&&...  ...$$$$...    ",
" ...@@@@@@...%%%%%%...+++...#######...&&&&&&&...  ...$$$$...    ",
" ...@@@@@@...%%%%%%...+++...#######...&&&&&&&...  ...$$$$...    ",
" ...@@@@@@...%%%%%%...+++...#######...&&&&&&&...   ...$$$...    ",
" ...@@@@@@...%%%%%%...+++...#######...&&&&&&&...   ...$$$$...   ",
" ...@@@@@@...%%%%%%...+++...#######...&&&&&&&...   ...$$$$...   ",
" ...@@@@@@...%%%%%%...+++...#######...&&&&&&&...   ...$$$$...   ",
" ...@@@@@@...%%%%%%...+++...#######...&&&&&&&...    ...$$$$...  ",
" ...@@@@@@...%%%%%%...+++...#######...&&&&&&&...    ...$$$$...  ",
" ...@@@@@@...%%%%%%...+++...#######...&&&&&&&...    ...$$$$...  ",
" ...@@@@@@...%%%%%%...+++...#######...&&&&&&&...    ...$$$$...  ",
" ...@@@@@@...%%%%%%...+++...#######...&&&&&&&...     ...$$$$... ",
" ...@@@@@@...%%%%%%...+++...#######...&&&&&&&...     ...$$$$... ",
" ...@@@@@@...%%%%%%...+++...#######...&&&&&&&...     ...$$$.....",
" ...@@@@@@...%%%%%%...+++...#######...&&&&&&&...     ...$...... ",
" ...............................................      .......   ",
" ...............................................      .....     ",
"  .............................................        ..       ",
"                                                                "};
